<svg width="143" height="16" viewBox="0 0 143 16" fill="none" xmlns="http://www.w3.org/2000/svg">
<path d="M142.569 15.0752H138.464V11.2959H142.569V15.0752Z" fill="#FEFEFE"/>
<path d="M136.702 8C137.089 8.73242 137.282 9.64355 137.282 10.7334C137.282 12.2627 136.942 13.3701 136.262 14.0557C135.583 14.7354 134.493 15.0752 132.993 15.0752C131.241 15.0752 126.981 15.0752 120.214 15.0752V12.0166C127.233 12.0166 130.869 12.0166 131.121 12.0166C131.373 12.0166 131.604 12.0049 131.815 11.9814C132.026 11.958 132.219 11.9082 132.395 11.832C132.577 11.75 132.72 11.6328 132.826 11.4805C132.937 11.3223 132.993 11.1172 132.993 10.8652C132.993 10.5781 132.917 10.3467 132.764 10.1709C132.618 9.99512 132.425 9.86914 132.184 9.79297C131.944 9.7168 131.695 9.66992 131.437 9.65234C131.179 9.62891 130.863 9.61719 130.488 9.61719C130.265 9.60547 129.624 9.58203 128.563 9.54688C126.911 9.48828 125.874 9.4502 125.452 9.43262C125.03 9.41504 124.632 9.39746 124.257 9.37988C123.887 9.3623 123.571 9.3418 123.307 9.31836C121.977 9.24219 121.025 8.80273 120.451 8C120.041 7.40234 119.836 6.50879 119.836 5.31934C119.836 3.85449 120.117 2.75586 120.679 2.02344C121.248 1.29102 122.185 0.924805 123.492 0.924805C125.232 0.924805 129.653 0.924805 136.755 0.924805V3.9834C129.735 3.9834 126.099 3.9834 125.847 3.9834C125.607 3.9834 125.39 3.99805 125.197 4.02734C125.01 4.05078 124.831 4.10059 124.661 4.17676C124.491 4.25293 124.353 4.37012 124.248 4.52832C124.148 4.68066 124.098 4.88574 124.098 5.14355C124.098 5.59473 124.26 5.89355 124.582 6.04004C124.91 6.18066 125.361 6.25098 125.935 6.25098C125.935 6.25098 126.061 6.25098 126.313 6.25098C126.483 6.25098 126.603 6.25098 126.674 6.25098C126.89 6.26855 127.52 6.29492 128.563 6.33008C130.005 6.37695 131.004 6.41211 131.56 6.43555C132.123 6.45898 132.594 6.47949 132.975 6.49707C133.362 6.51465 133.681 6.53516 133.933 6.55859C135.252 6.63477 136.175 7.11523 136.702 8Z" fill="#FEFEFE"/>
<path d="M118.073 8C118.46 8.73242 118.653 9.64355 118.653 10.7334C118.653 12.2627 118.314 13.3701 117.634 14.0557C116.954 14.7354 115.864 15.0752 114.364 15.0752C112.612 15.0752 108.353 15.0752 101.585 15.0752V12.0166C108.605 12.0166 112.24 12.0166 112.492 12.0166C112.744 12.0166 112.976 12.0049 113.187 11.9814C113.398 11.958 113.591 11.9082 113.767 11.832C113.948 11.75 114.092 11.6328 114.197 11.4805C114.309 11.3223 114.364 11.1172 114.364 10.8652C114.364 10.5781 114.288 10.3467 114.136 10.1709C113.989 9.99512 113.796 9.86914 113.556 9.79297C113.315 9.7168 113.066 9.66992 112.809 9.65234C112.551 9.62891 112.234 9.61719 111.859 9.61719C111.637 9.60547 110.995 9.58203 109.935 9.54688C108.282 9.48828 107.245 9.4502 106.823 9.43262C106.401 9.41504 106.003 9.39746 105.628 9.37988C105.259 9.3623 104.942 9.3418 104.679 9.31836C103.349 9.24219 102.397 8.80273 101.822 8C101.412 7.40234 101.207 6.50879 101.207 5.31934C101.207 3.85449 101.488 2.75586 102.051 2.02344C102.619 1.29102 103.557 0.924805 104.863 0.924805C106.604 0.924805 111.024 0.924805 118.126 0.924805V3.9834C111.107 3.9834 107.471 3.9834 107.219 3.9834C106.979 3.9834 106.762 3.99805 106.568 4.02734C106.381 4.05078 106.202 4.10059 106.032 4.17676C105.862 4.25293 105.725 4.37012 105.619 4.52832C105.52 4.68066 105.47 4.88574 105.47 5.14355C105.47 5.59473 105.631 5.89355 105.953 6.04004C106.281 6.18066 106.732 6.25098 107.307 6.25098C107.307 6.25098 107.433 6.25098 107.685 6.25098C107.855 6.25098 107.975 6.25098 108.045 6.25098C108.262 6.26855 108.892 6.29492 109.935 6.33008C111.376 6.37695 112.375 6.41211 112.932 6.43555C113.494 6.45898 113.966 6.47949 114.347 6.49707C114.733 6.51465 115.053 6.53516 115.305 6.55859C116.623 6.63477 117.546 7.11523 118.073 8Z" fill="#FEFEFE"/>
<path d="M88.7309 11.7793H99.8315V15.0752H88.977H84.6264H84.3188V0.924805H84.4945H88.977H99.8315V4.20312H88.7309V6.57617H99.1547V9.44141H88.7309V11.7793Z" fill="#FEFEFE"/>
<path d="M73.8025 11.6562H83.3562V15.0752H74.1101H69.6452H69.3904V0.924805H73.8025V11.6562Z" fill="#FEFEFE"/>
<path d="M59.7045 0.924805L51.9964 10.1621V15.0752H47.5668V10.1621L39.9027 0.924805H45.1937L49.7992 6.67285L54.4134 0.924805H59.7045Z" fill="#FEFEFE"/>
<path d="M33.0602 12.667H24.3679L23.0495 15.0752H18.154L25.9147 0.924805H31.5661L39.2477 15.0752H34.3522L33.0602 12.667ZM28.7009 4.52832L25.9675 9.61719H31.4343L28.7009 4.52832Z" fill="#FEFEFE"/>
<path d="M16.8662 8C17.2529 8.73242 17.4463 9.64355 17.4463 10.7334C17.4463 12.2627 17.1064 13.3701 16.4268 14.0557C15.7471 14.7354 14.6572 15.0752 13.1572 15.0752C11.4053 15.0752 7.14551 15.0752 0.37793 15.0752V12.0166C7.39746 12.0166 11.0332 12.0166 11.2852 12.0166C11.5371 12.0166 11.7686 12.0049 11.9795 11.9814C12.1904 11.958 12.3838 11.9082 12.5596 11.832C12.7412 11.75 12.8848 11.6328 12.9902 11.4805C13.1016 11.3223 13.1572 11.1172 13.1572 10.8652C13.1572 10.5781 13.0811 10.3467 12.9287 10.1709C12.7822 9.99512 12.5889 9.86914 12.3486 9.79297C12.1084 9.7168 11.8594 9.66992 11.6016 9.65234C11.3438 9.62891 11.0273 9.61719 10.6523 9.61719C10.4297 9.60547 9.78809 9.58203 8.72754 9.54688C7.0752 9.48828 6.03809 9.4502 5.61621 9.43262C5.19434 9.41504 4.7959 9.39746 4.4209 9.37988C4.05176 9.3623 3.73535 9.3418 3.47168 9.31836C2.1416 9.24219 1.18945 8.80273 0.615234 8C0.205078 7.40234 0 6.50879 0 5.31934C0 3.85449 0.28125 2.75586 0.84375 2.02344C1.41211 1.29102 2.34961 0.924805 3.65625 0.924805C5.39648 0.924805 9.81738 0.924805 16.9189 0.924805V3.9834C9.89941 3.9834 6.26367 3.9834 6.01172 3.9834C5.77148 3.9834 5.55469 3.99805 5.36133 4.02734C5.17383 4.05078 4.99512 4.10059 4.8252 4.17676C4.65527 4.25293 4.51758 4.37012 4.41211 4.52832C4.3125 4.68066 4.2627 4.88574 4.2627 5.14355C4.2627 5.59473 4.42383 5.89355 4.74609 6.04004C5.07422 6.18066 5.52539 6.25098 6.09961 6.25098C6.09961 6.25098 6.22559 6.25098 6.47754 6.25098C6.64746 6.25098 6.76758 6.25098 6.83789 6.25098C7.05469 6.26855 7.68457 6.29492 8.72754 6.33008C10.1689 6.37695 11.168 6.41211 11.7246 6.43555C12.2871 6.45898 12.7588 6.47949 13.1396 6.49707C13.5264 6.51465 13.8457 6.53516 14.0977 6.55859C15.416 6.63477 16.3389 7.11523 16.8662 8Z" fill="#FEFEFE"/>
</svg>
